<mxfile host="Electron" modified="2024-02-14T20:25:41.136Z" agent="Mozilla/5.0 (Windows NT 10.0; Win64; x64) AppleWebKit/537.36 (KHTML, like Gecko) draw.io/23.0.2 Chrome/120.0.6099.109 Electron/28.1.0 Safari/537.36" etag="X6xUDVIp0J33BI4nJ2GO" version="23.0.2" type="device">
  <diagram name="Сущность-связь" id="meegSIh5yEZbhiBVrIRW">
    <mxGraphModel dx="1235" dy="844" grid="1" gridSize="10" guides="1" tooltips="1" connect="1" arrows="1" fold="1" page="1" pageScale="1" pageWidth="1169" pageHeight="827" math="0" shadow="0">
      <root>
        <mxCell id="0" />
        <mxCell id="1" parent="0" />
        <mxCell id="OlbXkareSTDpN4I9U51Q-46" value="&lt;font style=&quot;font-size: 20px;&quot;&gt;Пассажир&lt;/font&gt;" style="swimlane;childLayout=stackLayout;horizontal=1;startSize=40;horizontalStack=0;rounded=1;fontSize=18;fontStyle=1;strokeWidth=2;resizeParent=0;resizeLast=1;shadow=0;dashed=0;align=center;arcSize=4;whiteSpace=wrap;html=1;fontFamily=Times New Roman;fillColor=#bac8d3;strokeColor=#23445d;" vertex="1" parent="1">
          <mxGeometry x="40" y="40" width="200" height="230" as="geometry" />
        </mxCell>
        <mxCell id="OlbXkareSTDpN4I9U51Q-47" value="# ID пассажира&lt;br style=&quot;font-size: 18px;&quot;&gt;* Фамилия&lt;br style=&quot;font-size: 18px;&quot;&gt;* Имя&lt;br style=&quot;font-size: 18px;&quot;&gt;°&amp;nbsp;Отчество&lt;br style=&quot;font-size: 18px;&quot;&gt;* Дата рождения&lt;br style=&quot;font-size: 18px;&quot;&gt;* Паспортные данные&lt;br style=&quot;font-size: 18px;&quot;&gt;* Эл. почта&lt;br style=&quot;font-size: 18px;&quot;&gt;* Телефон" style="align=left;strokeColor=#23445d;fillColor=none;spacingLeft=4;fontSize=18;verticalAlign=top;resizable=0;rotatable=0;part=1;html=1;fontFamily=Times New Roman;fontStyle=1" vertex="1" parent="OlbXkareSTDpN4I9U51Q-46">
          <mxGeometry y="40" width="200" height="190" as="geometry" />
        </mxCell>
        <mxCell id="OlbXkareSTDpN4I9U51Q-54" value="&lt;font style=&quot;font-size: 20px;&quot;&gt;Авиабилет&lt;/font&gt;" style="swimlane;childLayout=stackLayout;horizontal=1;startSize=40;horizontalStack=0;rounded=1;fontSize=18;fontStyle=1;strokeWidth=2;resizeParent=0;resizeLast=1;shadow=0;dashed=0;align=center;arcSize=4;whiteSpace=wrap;html=1;fontFamily=Times New Roman;fillColor=#bac8d3;strokeColor=#23445d;" vertex="1" parent="1">
          <mxGeometry x="280" y="320" width="200" height="230" as="geometry" />
        </mxCell>
        <mxCell id="OlbXkareSTDpN4I9U51Q-55" value="# Номер билета&lt;br style=&quot;font-size: 18px;&quot;&gt;* ID пассажира&lt;br style=&quot;font-size: 18px;&quot;&gt;* ID рейса&lt;br&gt;* Класс обслуживания&lt;br&gt;* Цена&lt;br&gt;* Статус билета&lt;br&gt;&amp;nbsp; &amp;nbsp;(забронирован,&lt;br&gt;&amp;nbsp; &amp;nbsp;куплен, возвращён)" style="align=left;strokeColor=#23445d;fillColor=none;spacingLeft=4;fontSize=18;verticalAlign=top;resizable=0;rotatable=0;part=1;html=1;fontFamily=Times New Roman;fontStyle=1" vertex="1" parent="OlbXkareSTDpN4I9U51Q-54">
          <mxGeometry y="40" width="200" height="190" as="geometry" />
        </mxCell>
        <mxCell id="OlbXkareSTDpN4I9U51Q-63" value="&lt;font style=&quot;font-size: 20px;&quot;&gt;Рейс&lt;/font&gt;" style="swimlane;childLayout=stackLayout;horizontal=1;startSize=40;horizontalStack=0;rounded=1;fontSize=18;fontStyle=1;strokeWidth=2;resizeParent=0;resizeLast=1;shadow=0;dashed=0;align=center;arcSize=4;whiteSpace=wrap;html=1;fontFamily=Times New Roman;fillColor=#bac8d3;strokeColor=#23445d;" vertex="1" parent="1">
          <mxGeometry x="680" y="320" width="200" height="230" as="geometry" />
        </mxCell>
        <mxCell id="OlbXkareSTDpN4I9U51Q-64" value="# ID рейса&lt;br style=&quot;font-size: 18px;&quot;&gt;* Номер рейса&lt;br style=&quot;font-size: 18px;&quot;&gt;* Пункт отправления&lt;br style=&quot;font-size: 18px;&quot;&gt;* Пункт назначения&lt;br&gt;* Время отправления&lt;br&gt;* Время прибытия&lt;br&gt;° Статус рейса" style="align=left;strokeColor=#23445d;fillColor=none;spacingLeft=4;fontSize=18;verticalAlign=top;resizable=0;rotatable=0;part=1;html=1;fontFamily=Times New Roman;fontStyle=1" vertex="1" parent="OlbXkareSTDpN4I9U51Q-63">
          <mxGeometry y="40" width="200" height="190" as="geometry" />
        </mxCell>
        <mxCell id="OlbXkareSTDpN4I9U51Q-67" value="&lt;font style=&quot;font-size: 20px;&quot;&gt;Администратор&lt;/font&gt;" style="swimlane;childLayout=stackLayout;horizontal=1;startSize=40;horizontalStack=0;rounded=1;fontSize=18;fontStyle=1;strokeWidth=2;resizeParent=0;resizeLast=1;shadow=0;dashed=0;align=center;arcSize=4;whiteSpace=wrap;html=1;fontFamily=Times New Roman;fillColor=#bac8d3;strokeColor=#23445d;" vertex="1" parent="1">
          <mxGeometry x="920" y="40" width="200" height="120" as="geometry" />
        </mxCell>
        <mxCell id="OlbXkareSTDpN4I9U51Q-68" value="# ID администратора&lt;br style=&quot;font-size: 18px;&quot;&gt;* Логин&lt;br style=&quot;font-size: 18px;&quot;&gt;* Пароль" style="align=left;strokeColor=#23445d;fillColor=none;spacingLeft=4;fontSize=18;verticalAlign=top;resizable=0;rotatable=0;part=1;html=1;fontFamily=Times New Roman;fontStyle=1" vertex="1" parent="OlbXkareSTDpN4I9U51Q-67">
          <mxGeometry y="40" width="200" height="80" as="geometry" />
        </mxCell>
        <mxCell id="OlbXkareSTDpN4I9U51Q-70" value="&lt;font style=&quot;font-size: 20px;&quot;&gt;Авиакомпания&lt;/font&gt;" style="swimlane;childLayout=stackLayout;horizontal=1;startSize=40;horizontalStack=0;rounded=1;fontSize=18;fontStyle=1;strokeWidth=2;resizeParent=0;resizeLast=1;shadow=0;dashed=0;align=center;arcSize=4;whiteSpace=wrap;html=1;fontFamily=Times New Roman;fillColor=#bac8d3;strokeColor=#23445d;" vertex="1" parent="1">
          <mxGeometry x="480" y="680" width="200" height="120" as="geometry" />
        </mxCell>
        <mxCell id="OlbXkareSTDpN4I9U51Q-71" value="# ID авиакомпании&lt;br style=&quot;font-size: 18px;&quot;&gt;* Название&lt;br style=&quot;font-size: 18px;&quot;&gt;* Код IATA" style="align=left;strokeColor=#23445d;fillColor=none;spacingLeft=4;fontSize=18;verticalAlign=top;resizable=0;rotatable=0;part=1;html=1;fontFamily=Times New Roman;fontStyle=1" vertex="1" parent="OlbXkareSTDpN4I9U51Q-70">
          <mxGeometry y="40" width="200" height="80" as="geometry" />
        </mxCell>
        <mxCell id="OlbXkareSTDpN4I9U51Q-74" value="" style="fontSize=12;html=1;endArrow=ERzeroToMany;startArrow=ERmandOne;rounded=0;edgeStyle=orthogonalEdgeStyle;strokeWidth=2;fillColor=#bac8d3;strokeColor=#23445d;exitX=0.5;exitY=1;exitDx=0;exitDy=0;curved=1;entryX=0;entryY=0.5;entryDx=0;entryDy=0;" edge="1" parent="1" source="OlbXkareSTDpN4I9U51Q-47" target="OlbXkareSTDpN4I9U51Q-55">
          <mxGeometry width="100" height="100" relative="1" as="geometry">
            <mxPoint x="440" y="120" as="sourcePoint" />
            <mxPoint x="480" y="240" as="targetPoint" />
          </mxGeometry>
        </mxCell>
        <mxCell id="OlbXkareSTDpN4I9U51Q-88" value="&lt;font style=&quot;font-size: 18px;&quot; face=&quot;Times New Roman&quot;&gt;&lt;b&gt;покупает&lt;/b&gt;&lt;/font&gt;" style="edgeLabel;html=1;align=center;verticalAlign=middle;resizable=0;points=[];" vertex="1" connectable="0" parent="OlbXkareSTDpN4I9U51Q-74">
          <mxGeometry x="-0.2967" y="15" relative="1" as="geometry">
            <mxPoint as="offset" />
          </mxGeometry>
        </mxCell>
        <mxCell id="OlbXkareSTDpN4I9U51Q-76" value="" style="edgeStyle=orthogonalEdgeStyle;fontSize=12;html=1;endArrow=ERzeroToMany;startArrow=ERmandOne;rounded=0;exitX=0;exitY=0.5;exitDx=0;exitDy=0;entryX=0.5;entryY=0;entryDx=0;entryDy=0;curved=1;strokeWidth=2;fillColor=#bac8d3;strokeColor=#23445d;" edge="1" parent="1" source="OlbXkareSTDpN4I9U51Q-68" target="OlbXkareSTDpN4I9U51Q-54">
          <mxGeometry width="100" height="100" relative="1" as="geometry">
            <mxPoint x="570" y="420" as="sourcePoint" />
            <mxPoint x="550" y="90" as="targetPoint" />
          </mxGeometry>
        </mxCell>
        <mxCell id="OlbXkareSTDpN4I9U51Q-89" value="управляет" style="edgeLabel;html=1;align=center;verticalAlign=middle;resizable=0;points=[];fontFamily=Times New Roman;fontSize=18;fontStyle=1" vertex="1" connectable="0" parent="OlbXkareSTDpN4I9U51Q-76">
          <mxGeometry x="-0.1659" y="23" relative="1" as="geometry">
            <mxPoint as="offset" />
          </mxGeometry>
        </mxCell>
        <mxCell id="OlbXkareSTDpN4I9U51Q-80" value="" style="edgeStyle=orthogonalEdgeStyle;fontSize=12;html=1;endArrow=ERzeroToMany;startArrow=ERmandOne;rounded=0;exitX=0.25;exitY=1;exitDx=0;exitDy=0;entryX=1;entryY=0.5;entryDx=0;entryDy=0;curved=1;strokeWidth=2;fillColor=#bac8d3;strokeColor=#23445d;" edge="1" parent="1" source="OlbXkareSTDpN4I9U51Q-68" target="OlbXkareSTDpN4I9U51Q-64">
          <mxGeometry width="100" height="100" relative="1" as="geometry">
            <mxPoint x="570" y="420" as="sourcePoint" />
            <mxPoint x="1030" y="450" as="targetPoint" />
          </mxGeometry>
        </mxCell>
        <mxCell id="OlbXkareSTDpN4I9U51Q-90" value="управляет" style="edgeLabel;html=1;align=center;verticalAlign=middle;resizable=0;points=[];fontFamily=Times New Roman;fontSize=18;fontStyle=1" vertex="1" connectable="0" parent="OlbXkareSTDpN4I9U51Q-80">
          <mxGeometry x="-0.1652" y="-9" relative="1" as="geometry">
            <mxPoint as="offset" />
          </mxGeometry>
        </mxCell>
        <mxCell id="OlbXkareSTDpN4I9U51Q-81" value="" style="edgeStyle=orthogonalEdgeStyle;fontSize=12;html=1;endArrow=ERzeroToMany;startArrow=ERmandOne;rounded=0;exitX=0.5;exitY=1;exitDx=0;exitDy=0;entryX=0.5;entryY=0;entryDx=0;entryDy=0;curved=1;strokeWidth=2;fillColor=#bac8d3;strokeColor=#23445d;" edge="1" parent="1" source="OlbXkareSTDpN4I9U51Q-64" target="OlbXkareSTDpN4I9U51Q-70">
          <mxGeometry width="100" height="100" relative="1" as="geometry">
            <mxPoint x="570" y="530" as="sourcePoint" />
            <mxPoint x="670" y="430" as="targetPoint" />
          </mxGeometry>
        </mxCell>
        <mxCell id="OlbXkareSTDpN4I9U51Q-93" value="&lt;font style=&quot;font-size: 18px;&quot; face=&quot;Times New Roman&quot;&gt;&lt;b&gt;осуществялется&lt;/b&gt;&lt;/font&gt;" style="edgeLabel;html=1;align=center;verticalAlign=middle;resizable=0;points=[];" vertex="1" connectable="0" parent="OlbXkareSTDpN4I9U51Q-81">
          <mxGeometry x="-0.0852" relative="1" as="geometry">
            <mxPoint as="offset" />
          </mxGeometry>
        </mxCell>
        <mxCell id="OlbXkareSTDpN4I9U51Q-83" value="" style="edgeStyle=orthogonalEdgeStyle;fontSize=12;html=1;endArrow=ERmandOne;startArrow=ERmandOne;rounded=0;exitX=1;exitY=0.5;exitDx=0;exitDy=0;entryX=0;entryY=0.5;entryDx=0;entryDy=0;curved=1;strokeWidth=2;fillColor=#bac8d3;strokeColor=#23445d;" edge="1" parent="1" source="OlbXkareSTDpN4I9U51Q-55" target="OlbXkareSTDpN4I9U51Q-64">
          <mxGeometry width="100" height="100" relative="1" as="geometry">
            <mxPoint x="570" y="530" as="sourcePoint" />
            <mxPoint x="670" y="430" as="targetPoint" />
          </mxGeometry>
        </mxCell>
        <mxCell id="OlbXkareSTDpN4I9U51Q-92" value="привязан к" style="edgeLabel;html=1;align=center;verticalAlign=middle;resizable=0;points=[];fontFamily=Times New Roman;fontSize=18;fontStyle=1" vertex="1" connectable="0" parent="OlbXkareSTDpN4I9U51Q-83">
          <mxGeometry x="-0.0578" relative="1" as="geometry">
            <mxPoint as="offset" />
          </mxGeometry>
        </mxCell>
        <mxCell id="OlbXkareSTDpN4I9U51Q-87" value="" style="edgeStyle=orthogonalEdgeStyle;fontSize=12;html=1;endArrow=ERzeroToMany;startArrow=ERmandOne;rounded=0;exitX=0.75;exitY=1;exitDx=0;exitDy=0;entryX=1;entryY=0.5;entryDx=0;entryDy=0;elbow=vertical;curved=1;strokeWidth=2;fillColor=#bac8d3;strokeColor=#23445d;" edge="1" parent="1" source="OlbXkareSTDpN4I9U51Q-68" target="OlbXkareSTDpN4I9U51Q-71">
          <mxGeometry width="100" height="100" relative="1" as="geometry">
            <mxPoint x="570" y="420" as="sourcePoint" />
            <mxPoint x="670" y="320" as="targetPoint" />
          </mxGeometry>
        </mxCell>
        <mxCell id="OlbXkareSTDpN4I9U51Q-91" value="управляет" style="edgeLabel;html=1;align=center;verticalAlign=middle;resizable=0;points=[];fontFamily=Times New Roman;fontSize=18;fontStyle=1" vertex="1" connectable="0" parent="OlbXkareSTDpN4I9U51Q-87">
          <mxGeometry x="-0.184" y="-66" relative="1" as="geometry">
            <mxPoint as="offset" />
          </mxGeometry>
        </mxCell>
      </root>
    </mxGraphModel>
  </diagram>
</mxfile>
